<?xml version="1.0" encoding="UTF-8" standalone="no"?><!DOCTYPE svg PUBLIC "-//W3C//DTD SVG 1.1//EN" "http://www.w3.org/Graphics/SVG/1.1/DTD/svg11.dtd"><svg width="100%" height="100%" viewBox="0 0 64 64" version="1.1" xmlns="http://www.w3.org/2000/svg" xmlns:xlink="http://www.w3.org/1999/xlink" xml:space="preserve" xmlns:serif="http://www.serif.com/" style="fill-rule:evenodd;clip-rule:evenodd;stroke-linejoin:round;stroke-miterlimit:1.41421;"><g id="Pause"><path d="M26.113,8.827c0,-0.219 -0.088,-0.43 -0.243,-0.585c-0.155,-0.155 -0.365,-0.242 -0.585,-0.242c-2.195,0 -8.15,0 -10.345,0c-0.22,0 -0.43,0.087 -0.585,0.242c-0.155,0.155 -0.242,0.366 -0.242,0.585c0,5.818 0,40.528 0,46.346c0,0.219 0.087,0.43 0.242,0.585c0.155,0.155 0.365,0.242 0.585,0.242c2.195,0 8.15,0 10.345,0c0.22,0 0.43,-0.087 0.585,-0.242c0.155,-0.155 0.243,-0.366 0.243,-0.585c0,-5.818 0,-40.528 0,-46.346Z" style="fill:#cf1f1c;"/><path d="M50.113,8.827c0,-0.219 -0.088,-0.43 -0.243,-0.585c-0.155,-0.155 -0.365,-0.242 -0.585,-0.242c-2.195,0 -8.15,0 -10.345,0c-0.22,0 -0.43,0.087 -0.585,0.242c-0.155,0.155 -0.242,0.366 -0.242,0.585c0,5.818 0,40.528 0,46.346c0,0.219 0.087,0.43 0.242,0.585c0.155,0.155 0.365,0.242 0.585,0.242c2.195,0 8.15,0 10.345,0c0.22,0 0.43,-0.087 0.585,-0.242c0.155,-0.155 0.243,-0.366 0.243,-0.585c0,-5.818 0,-40.528 0,-46.346Z" style="fill:#cf1f1c;"/></g></svg>
