<?xml version="1.0" encoding="UTF-8" standalone="no"?><!DOCTYPE svg PUBLIC "-//W3C//DTD SVG 1.1//EN" "http://www.w3.org/Graphics/SVG/1.1/DTD/svg11.dtd">
<svg version="1.1" xmlns="http://www.w3.org/2000/svg" >
  <defs>

    <symbol id="play-icon">
        <path d="M54.269,31.056c0.345,0.188 0.56,0.55 0.56,0.944c0,0.394 -0.215,0.756 -0.56,0.944c-7.09,3.868 -33.855,18.466 -40.678,22.188c-0.333,0.182 -0.738,0.175 -1.064,-0.019c-0.327,-0.194 -0.527,-0.545 -0.527,-0.925c0,-7.591 0,-36.785 0,-44.376c0,-0.38 0.2,-0.731 0.527,-0.925c0.326,-0.194 0.731,-0.201 1.064,-0.019c6.823,3.722 33.588,18.32 40.678,22.188Z" style="fill:#cf1f1c;"/>
    <symbol>

    <symbol id="pause-icon">
        <path d="M26.113,8.827c0,-0.219 -0.088,-0.43 -0.243,-0.585c-0.155,-0.155 -0.365,-0.242 -0.585,-0.242c-2.195,0 -8.15,0 -10.345,0c-0.22,0 -0.43,0.087 -0.585,0.242c-0.155,0.155 -0.242,0.366 -0.242,0.585c0,5.818 0,40.528 0,46.346c0,0.219 0.087,0.43 0.242,0.585c0.155,0.155 0.365,0.242 0.585,0.242c2.195,0 8.15,0 10.345,0c0.22,0 0.43,-0.087 0.585,-0.242c0.155,-0.155 0.243,-0.366 0.243,-0.585c0,-5.818 0,-40.528 0,-46.346Z" style="fill:#cf1f1c;"/>
        <path d="M50.113,8.827c0,-0.219 -0.088,-0.43 -0.243,-0.585c-0.155,-0.155 -0.365,-0.242 -0.585,-0.242c-2.195,0 -8.15,0 -10.345,0c-0.22,0 -0.43,0.087 -0.585,0.242c-0.155,0.155 -0.242,0.366 -0.242,0.585c0,5.818 0,40.528 0,46.346c0,0.219 0.087,0.43 0.242,0.585c0.155,0.155 0.365,0.242 0.585,0.242c2.195,0 8.15,0 10.345,0c0.22,0 0.43,-0.087 0.585,-0.242c0.155,-0.155 0.243,-0.366 0.243,-0.585c0,-5.818 0,-40.528 0,-46.346Z" style="fill:#cf1f1c;"/>
    <symbol>

    <symbol id="stop-icon">
        <path d="M56,9.437c0,-0.794 -0.643,-1.437 -1.437,-1.437c-7.064,0 -38.062,0 -45.126,0c-0.794,0 -1.437,0.643 -1.437,1.437c0,7.064 0,38.062 0,45.126c0,0.794 0.643,1.437 1.437,1.437c7.064,0 38.062,0 45.126,0c0.794,0 1.437,-0.643 1.437,-1.437c0,-7.064 0,-38.062 0,-45.126Z" style="fill:#cf1f1c;"/>
    <symbol>

    <symbol id="switch-icon">
        <g>
            <g>
                <rect x="8" y="16" width="32" height="7.761" style="fill:#cf1f1c;"/>
                <path d="M57.914,20.042l-18.002,7.958l0.075,-16.084l17.927,8.126Z" style="fill:#cf1f1c;"/>
            </g>
            <g>
                <path d="M23.997,44l32,0.012l0.003,-7.761l-32,-0.012l-0.003,7.761Z" style="fill:#cf1f1c;"/>
                <path d="M6.084,39.951l18.005,-7.951l-0.081,16.084l-17.924,-8.133Z" style="fill:#cf1f1c;"/>
            </g>
        </g>
    <symbol>

  </defs>
</svg>
